<svg width="1068" height="483" viewBox="0 0 1068 483" fill="none" xmlns="http://www.w3.org/2000/svg">
<path fill-rule="evenodd" clip-rule="evenodd" d="M506.229 185.212C506.879 185.212 507.515 185.393 508.065 185.732L508.296 185.888L535.014 205.451L560.256 185.942L560.492 185.775C561.057 185.409 561.719 185.212 562.396 185.212H632.251C633.78 185.212 635.145 186.207 635.592 187.682L635.669 187.983L636.099 190.105C637.362 196.507 640.292 212.73 641.671 231.846C643.24 253.602 642.836 279.504 635.39 298.908C632.611 306.148 627.96 314.806 624.056 321.582C622.094 324.986 620.303 327.945 619.003 330.054C618.352 331.108 617.824 331.952 617.457 332.532C617.274 332.822 617.131 333.046 617.033 333.199C616.995 333.259 616.963 333.307 616.939 333.345L538.126 480.275C536.815 482.718 533.32 482.741 531.979 480.314L450.747 333.374C450.723 333.337 450.691 333.29 450.652 333.231C450.552 333.079 450.404 332.854 450.215 332.564C449.837 331.985 449.292 331.144 448.622 330.091C447.281 327.986 445.435 325.031 443.413 321.63C439.389 314.86 434.593 306.198 431.729 298.929C424.104 279.571 423.692 253.652 425.3 231.876C426.914 210.008 430.601 191.905 431.441 187.967L431.52 187.666C431.972 186.194 433.337 185.212 434.855 185.212H506.229ZM535.021 475.484L574.456 401.966L535.448 416.182L535.277 416.244L494.041 401.354L535.021 475.484ZM485.78 386.41L535.271 402.684L582.965 386.104L608.738 338.055L535.066 367.25L534.881 367.176L520.268 361.311L458.439 336.955L485.78 386.41ZM436.083 190.212C434.942 195.755 431.749 212.439 430.287 232.244C428.689 253.887 429.191 278.847 436.381 297.097C439.089 303.972 443.711 312.346 447.711 319.074C448.438 320.298 449.145 321.462 449.811 322.55L535.064 353.679L617.498 322.88C618.198 321.702 618.948 320.43 619.723 319.086C623.603 312.351 628.09 303.973 630.721 297.117C637.751 278.797 638.244 253.831 636.684 232.206C635.256 212.419 632.138 195.762 631.02 190.212H562.908L537.18 210.098C535.946 211.051 534.23 211.073 532.972 210.152L505.738 190.212H436.083Z" fill="#242323"/>
<path fill-rule="evenodd" clip-rule="evenodd" d="M423.441 197.11V359.766L365.908 388.197L329.898 346.696L390.229 245.792C386.236 250.893 381.955 256.239 377.426 261.719C350.238 294.614 313.95 332.687 278 352.507C258.633 363.184 232.075 372.58 210.476 379.288C199.653 382.649 190.032 385.349 183.115 387.208C179.657 388.138 176.873 388.858 174.952 389.346C173.992 389.59 173.247 389.775 172.741 389.9C172.488 389.963 172.294 390.011 172.164 390.043C172.099 390.059 172.049 390.071 172.016 390.079C172 390.083 171.987 390.086 171.979 390.088C171.974 390.089 171.97 390.09 171.968 390.091L171.965 390.092L170.657 390.407L0 231.598L77.9004 150.812L423.441 197.11ZM7.13184 231.405L172.088 384.909C172.528 384.799 173.075 384.663 173.721 384.499C175.622 384.016 178.383 383.302 181.817 382.379C188.687 380.532 198.245 377.851 208.993 374.514C230.535 367.824 256.687 358.548 275.586 348.129C310.655 328.795 346.441 291.36 373.572 258.533C387.108 242.157 398.433 226.996 406.374 215.931C410.344 210.399 413.466 205.893 415.595 202.772C415.972 202.219 416.318 201.708 416.632 201.243L79.7432 156.104L7.13184 231.405ZM336.048 346.154L367.153 382.003L418.44 356.658V208.352L336.048 346.154Z" fill="#242323"/>
<path fill-rule="evenodd" clip-rule="evenodd" d="M1067.21 229.431L895.747 387.366L894.442 387.044L895.042 384.616L894.441 387.043L894.438 387.042C894.436 387.041 894.432 387.041 894.428 387.04C894.419 387.038 894.407 387.034 894.391 387.03C894.357 387.022 894.307 387.01 894.242 386.994C894.112 386.962 893.919 386.912 893.666 386.848C893.161 386.72 892.417 386.531 891.458 386.282C889.54 385.784 886.76 385.05 883.306 384.103C876.399 382.208 866.792 379.459 855.986 376.043C834.422 369.225 807.912 359.693 788.6 348.917C752.752 328.914 716.658 290.656 689.639 257.622C683.891 250.595 678.545 243.79 673.688 237.432L737.527 348.68L701.322 389.978L643.943 361.256V192.781L989.727 148.247L1067.21 229.431ZM648.943 358.167L700.109 383.778L731.413 348.07L648.944 204.357L648.943 358.167ZM650.743 196.946C651.055 197.412 651.397 197.926 651.771 198.481C653.884 201.613 656.984 206.135 660.926 211.687C668.81 222.792 680.057 238.011 693.509 254.456C720.472 287.421 756.066 325.039 791.036 344.552C809.882 355.067 835.985 364.476 857.493 371.276C868.224 374.669 877.769 377.399 884.629 379.28C888.058 380.221 890.816 380.949 892.714 381.441C893.359 381.609 893.906 381.748 894.345 381.86L1060.08 229.201L987.857 153.529L650.743 196.946Z" fill="#242323"/>
<path fill-rule="evenodd" clip-rule="evenodd" d="M590.452 1.42383L576.691 47.7217L602.602 66.3838C603.515 67.0415 604.056 68.0984 604.056 69.2236V133.222C604.056 134.304 603.555 135.325 602.7 135.988L534.06 189.206C532.784 190.195 530.998 190.184 529.735 189.179L462.876 135.969C462.042 135.305 461.556 134.296 461.556 133.229V69.2041C461.556 68.1182 462.06 67.0933 462.92 66.4307L487.146 47.7715L473.655 1.41016L478.456 0.0136719L491.901 46.2119H571.924L585.659 0L590.452 1.42383ZM466.556 69.9414V132.506L531.927 184.532L599.056 132.486V69.9922L572.982 51.2119H490.876L466.556 69.9414Z" fill="#242323"/>
</svg>
